# Blender 4.3.1
# www.blender.org
mtllib prova.mtl
o Firebird
v -212.605591 98.888580 -5.330405
v -213.914276 101.194061 2.329243
v -222.093796 94.476425 3.012567
v -227.267197 94.191368 -9.687630
v -227.224426 100.491112 2.435371
v -208.102631 116.657486 0.150302
v -207.893402 115.730125 -2.695130
v -213.875366 106.831635 -1.816384
v -227.337708 89.661171 -2.463286
v -236.908325 94.357307 7.364500
v -236.936890 89.772346 -2.487099
v -227.309143 94.246124 7.388315
v -236.866379 94.302551 -9.711443
v -241.695724 89.485870 -20.427881
v -233.843231 100.978020 12.094167
v -237.081680 106.136292 11.310900
v -236.823608 100.602295 2.411558
v -230.243530 100.936325 12.103097
v -222.497375 89.263512 -20.380259
v -232.032822 104.602638 24.799324
v -226.882553 106.018158 11.336126
v -242.287796 94.036079 0.006073
v -250.190750 103.654434 5.462488
v -250.235321 101.003647 -2.197122
v -226.882553 106.018158 11.336126
v -237.081680 106.136292 11.310898
v -254.416351 118.127563 0.727225
v -254.633560 117.204918 -2.119191
v -252.368637 106.812645 -0.504176
vn 0.3339 -0.9356 -0.1150
vn 0.6168 -0.7184 0.3216
vn -0.2038 0.9273 -0.3139
vn -0.7371 -0.5986 0.3137
vn 0.0028 0.0979 0.9952
vn -0.0505 0.8863 -0.4604
vn -0.8177 0.5268 -0.2318
vn -0.7906 0.3663 0.4907
vn -0.9856 -0.0958 -0.1395
vn -0.5245 0.2729 -0.8065
vn 0.9225 -0.2967 0.2469
vn 0.9296 -0.3248 0.1742
vn -0.0115 -0.9065 0.4219
vn -0.8945 0.3826 0.2312
vn -0.8325 -0.4809 0.2749
vn -0.0087 -0.5786 0.8156
vn 0.0116 0.9101 -0.4143
vn 0.9357 0.2113 0.2825
vn -0.8355 -0.4854 0.2575
vn 0.9999 -0.0116 0.0025
vn -0.9999 0.0116 -0.0025
vn 0.9020 0.3618 0.2356
vn -0.0118 -0.9611 0.2759
vn 0.0112 0.9940 0.1088
vn -0.9320 0.2330 0.2778
vn 0.8198 -0.5001 0.2790
vn 0.8227 -0.5046 0.2617
vn 0.1094 -0.4209 0.9005
vn -0.6767 -0.6946 0.2443
vn 0.1395 0.9355 -0.3246
vn 0.6546 -0.6718 0.3468
vn -0.5663 -0.7524 -0.3366
vn 0.1821 0.8722 -0.4539
vn -0.9722 -0.1907 0.1360
vn -0.9499 -0.1982 0.2418
vn -0.9166 -0.3761 0.1355
vn -0.9188 -0.2480 -0.3070
vn 0.9605 0.2612 -0.0960
vn 0.9613 0.2321 -0.1486
vn 0.0111 0.8493 -0.5278
vn 0.0114 0.8873 -0.4611
vt 0.998047 0.000000
vt 0.000000 1.000000
vt 0.998047 1.000000
vt 1.000000 0.000000
vt 1.000000 1.000000
vt 0.669922 0.000000
vt 0.412109 0.666016
vt 0.000000 0.998047
vt 1.000000 0.998047
vt -0.017578 -0.044922
vt 1.017578 -0.044922
vt 0.962891 0.998047
vt 0.998047 0.998047
vt 0.984375 -0.033203
vt 0.013672 -0.033203
vt -0.035156 0.000000
s 1
usemtl red
f 3/1/1 4/2/1 1/3/1
f 1/3/2 2/2/2 3/1/2
f 4/2/3 2/4/3 1/5/3
f 5/5/4 4/2/4 3/4/4
f 3/2/5 2/1/5 5/3/5
f 4/2/6 5/5/6 2/1/6
f 6/4/7 7/6/7 8/7/7
f 8/7/8 2/5/8 6/4/8
f 1/2/9 2/5/9 8/7/9
f 8/7/10 7/6/10 1/2/10
f 2/2/11 1/3/11 7/4/11
f 2/4/12 7/8/12 6/9/12
f 9/5/13 10/10/13 11/2/13
f 9/5/13 12/11/13 10/10/13
f 11/1/14 13/2/14 14/3/14
f 15/2/15 16/9/15 17/4/15
f 10/2/16 12/9/16 18/4/16
f 14/4/17 13/5/17 4/2/17
f 18/2/18 12/12/18 5/4/18
f 14/1/17 4/2/17 19/3/17
f 15/1/19 20/13/19 16/8/19
f 12/5/20 4/5/20 5/2/20
f 12/5/20 9/4/20 4/5/20
f 10/5/21 13/5/21 11/4/21
f 10/5/21 17/2/21 13/5/21
f 18/1/16 15/3/16 10/2/16
f 19/5/22 4/2/22 9/4/22
f 15/2/23 18/4/23 20/5/23
f 20/5/24 21/4/24 16/2/24
f 17/2/25 10/3/25 15/1/25
f 5/4/26 21/9/26 18/8/26
f 21/2/27 20/5/27 18/4/27
f 22/1/28 17/2/28 23/3/28
f 23/3/29 24/2/29 22/1/29
f 17/2/30 24/4/30 23/5/30
f 13/5/31 17/2/31 22/4/31
f 22/2/32 24/1/32 13/3/32
f 17/2/33 13/5/33 24/1/33
f 27/4/34 28/6/34 29/7/34
f 29/7/35 23/5/35 27/4/35
f 24/2/36 23/5/36 29/7/36
f 29/7/37 28/6/37 24/2/37
f 23/2/38 24/3/38 28/4/38
f 23/4/39 28/8/39 27/9/39
usemtl cockpit
f 25/5/40 5/14/40 17/15/40
f 17/15/40 26/2/40 25/5/40
usemtl tank
f 17/16/41 4/5/41 13/2/41
f 17/16/41 5/4/41 4/5/41
o Firebird.001
v -236.936890 89.772346 -2.487099
v -227.337708 89.661171 -2.463285
v -222.497375 89.263512 -20.380257
v -241.695724 89.485870 -20.427879
vn -0.0116 -0.9998 0.0190
vt 0.742188 1.929688
vt 0.000000 1.000000
vt 0.255859 1.929688
vt 0.998047 1.000000
s 1
usemtl tank
f 30/17/42 32/18/42 31/19/42
f 30/17/42 33/20/42 32/18/42
